<svg xmlns="http://www.w3.org/2000/svg" viewBox="0 0 128 128" role="img" aria-labelledby="title desc">
  <title id="title">Megaphone icon</title>
  <desc id="desc">A stylized orange megaphone with sound waves.</desc>
  <defs>
    <linearGradient id="bg" x1="0" y1="0" x2="1" y2="1">
      <stop offset="0" stop-color="#133451"/>
      <stop offset="1" stop-color="#081624"/>
    </linearGradient>
    <linearGradient id="horn" x1="0" y1="0" x2="1" y2="0">
      <stop offset="0" stop-color="#ff7b29"/>
      <stop offset="1" stop-color="#ffb067"/>
    </linearGradient>
  </defs>
  <rect width="128" height="128" rx="26" fill="url(#bg)"/>
  <path d="M20 67l15-7 8 17-11 5c-4 2-9 0-10-4l-4-8c-2-3 0-8 2-9z" fill="#d2e6f9"/>
  <path d="M40 55l49-19v56l-49-19z" fill="url(#horn)"/>
  <path d="M89 36l17-7v70l-17-7z" fill="#ffe1c3"/>
  <path d="M102 48c8 3 13 11 13 19s-5 16-13 19" fill="none" stroke="#ffe9d1" stroke-width="6" stroke-linecap="round"/>
  <path d="M48 86l-10 6 7 16 13-8z" fill="#8fb5d8"/>
</svg>
